<svg xmlns="http://www.w3.org/2000/svg" width="750" viewBox="0 0 750 750" height="750" version="1.0"><defs><clipPath id="a"><path d="M 37.265625 13.785156 L 713.015625 13.785156 L 713.015625 736.035156 L 37.265625 736.035156 Z M 37.265625 13.785156"/></clipPath></defs><path fill="#FFF" d="M-75 -75H825V825H-75z"/><path fill="#FFF" d="M-75 -75H825V825H-75z"/><path fill="#FFF" d="M-75 -75H825V825H-75z"/><g clip-path="url(#a)"><path fill="#FFF" d="M 695.546875 499.363281 C 667.5625 444.148438 611.589844 409.773438 549.558594 409.773438 C 531.554688 409.773438 513.550781 412.800781 496.441406 418.679688 L 432.625 339.953125 L 638.328125 85.96875 C 653.835938 66.910156 650.804688 38.769531 631.730469 23.273438 C 612.660156 7.777344 584.496094 10.804688 568.988281 29.863281 L 375.230469 269.066406 L 181.292969 30.039062 C 165.785156 10.804688 137.796875 7.953125 118.546875 23.449219 C 99.296875 38.945312 96.445312 66.910156 111.953125 85.96875 L 317.652344 339.773438 L 253.839844 418.5 C 236.726562 412.621094 218.722656 409.59375 200.722656 409.59375 C 138.691406 409.59375 82.71875 443.96875 54.734375 499.183594 C 14.09375 579.691406 46.535156 678.007812 126.925781 718.617188 C 149.742188 730.191406 175.054688 736.25 200.542969 736.25 C 262.574219 736.25 318.546875 701.875 346.53125 646.660156 C 376.476562 587.347656 366.671875 518.242188 327.277344 469.796875 L 375.230469 410.664062 L 423.179688 469.796875 C 410.699219 485.113281 400.898438 502.746094 394.65625 522.160156 C 380.933594 563.660156 384.320312 607.832031 404.105469 646.835938 C 432.089844 702.050781 488.0625 736.425781 550.09375 736.425781 C 575.40625 736.425781 600.894531 730.371094 623.710938 718.792969 C 703.746094 678.007812 736.1875 579.691406 695.546875 499.363281 Z M 266.851562 606.40625 C 254.195312 631.519531 228.707031 647.195312 200.542969 647.195312 C 188.957031 647.195312 177.726562 644.523438 167.210938 639.179688 C 130.667969 620.65625 115.875 575.949219 134.410156 539.4375 C 147.066406 514.324219 172.558594 498.648438 200.722656 498.648438 C 212.308594 498.648438 223.539062 501.320312 234.054688 506.664062 C 270.773438 525.1875 285.390625 569.894531 266.851562 606.40625 Z M 583.070312 639.179688 C 572.554688 644.523438 561.324219 647.195312 549.738281 647.195312 C 521.574219 647.195312 496.082031 631.519531 483.425781 606.40625 C 474.515625 588.773438 472.910156 568.648438 479.148438 549.765625 C 485.386719 530.886719 498.398438 515.570312 516.226562 506.664062 C 526.742188 501.320312 537.972656 498.648438 549.558594 498.648438 C 577.722656 498.648438 603.210938 514.324219 615.867188 539.4375 C 634.40625 575.949219 619.789062 620.65625 583.070312 639.179688 Z M 583.070312 639.179688"/></g></svg>