<svg xmlns="http://www.w3.org/2000/svg" xmlns:xlink="http://www.w3.org/1999/xlink" width="375" viewBox="0 0 375 150" height="150" version="1.0"><defs><g id="a"><path d="M 44.828125 -65.203125 C 44.828125 -74.546875 39.757812 -79.519531 30.515625 -79.519531 L 19.382812 -79.519531 C 10.039062 -79.519531 4.96875 -74.546875 4.96875 -65.203125 L 4.96875 -14.3125 C 4.96875 -4.96875 10.039062 0 19.382812 0 L 30.515625 0 C 39.757812 0 44.828125 -4.96875 44.828125 -14.3125 L 44.828125 -25.046875 C 44.828125 -26.042969 44.230469 -26.636719 43.238281 -26.636719 L 33.296875 -26.636719 C 32.203125 -26.636719 31.707031 -26.042969 31.707031 -25.046875 L 31.707031 -17.097656 C 31.707031 -14.414062 30.316406 -13.121094 27.730469 -13.121094 L 22.5625 -13.121094 C 19.980469 -13.121094 18.585938 -14.414062 18.585938 -17.097656 L 18.585938 -62.421875 C 18.585938 -65.007812 19.878906 -66.398438 22.5625 -66.398438 L 27.730469 -66.398438 C 30.316406 -66.398438 31.707031 -65.007812 31.707031 -62.421875 L 31.707031 -54.46875 C 31.707031 -53.476562 32.203125 -52.878906 33.296875 -52.878906 L 43.238281 -52.878906 C 44.230469 -52.878906 44.828125 -53.476562 44.828125 -54.46875 Z M 44.828125 -65.203125"/></g><g id="b"><path d="M 4.96875 -1.589844 C 4.96875 -0.597656 5.566406 0 6.558594 0 L 16.898438 0 C 17.992188 0 18.488281 -0.597656 18.488281 -1.589844 L 18.488281 -26.636719 L 30.414062 -26.636719 C 39.757812 -26.636719 44.730469 -31.707031 44.730469 -40.953125 L 44.730469 -65.203125 C 44.730469 -74.546875 39.757812 -79.519531 30.414062 -79.519531 L 6.558594 -79.519531 C 5.566406 -79.519531 4.96875 -78.921875 4.96875 -77.925781 Z M 18.488281 -39.757812 L 18.488281 -66.398438 L 27.234375 -66.398438 C 29.917969 -66.398438 31.210938 -65.007812 31.210938 -62.421875 L 31.210938 -43.734375 C 31.210938 -41.25 29.917969 -39.757812 27.234375 -39.757812 Z M 18.488281 -39.757812"/></g><g id="c"><path d="M 40.554688 -79.519531 C 39.363281 -79.519531 38.664062 -79.019531 38.269531 -77.925781 L 27.136719 -49.402344 L 16.003906 -77.925781 C 15.605469 -79.019531 14.910156 -79.519531 13.71875 -79.519531 L 3.777344 -79.519531 C 2.285156 -79.519531 1.589844 -78.625 2.1875 -77.230469 L 20.375 -33 L 20.375 -1.988281 C 20.375 -0.695312 21.074219 0 22.363281 0 L 31.90625 0 C 33.199219 0 33.894531 -0.695312 33.894531 -1.988281 L 33.894531 -33 L 52.085938 -77.230469 C 52.679688 -78.625 51.984375 -79.519531 50.492188 -79.519531 Z M 40.554688 -79.519531"/></g><g id="d"><path d="M 4.96875 -1.988281 C 4.96875 -0.695312 5.664062 0 6.957031 0 L 16.003906 0 C 17.296875 0 17.992188 -0.695312 17.992188 -1.988281 L 17.992188 -11.132812 C 17.992188 -12.425781 17.296875 -13.121094 16.003906 -13.121094 L 6.957031 -13.121094 C 5.664062 -13.121094 4.96875 -12.425781 4.96875 -11.132812 Z M 4.96875 -1.988281"/></g><g id="e"><path d="M 18.488281 -13.121094 L 42.144531 -13.121094 C 43.238281 -13.121094 43.734375 -12.523438 43.734375 -11.53125 L 43.734375 -1.589844 C 43.734375 -0.496094 43.238281 0 42.144531 0 L 6.558594 0 C 5.566406 0 4.96875 -0.496094 4.96875 -1.589844 L 4.96875 -77.925781 C 4.96875 -78.921875 5.566406 -79.519531 6.558594 -79.519531 L 16.898438 -79.519531 C 17.992188 -79.519531 18.488281 -78.921875 18.488281 -77.925781 Z M 18.488281 -13.121094"/></g><g id="f"><path d="M 6.558594 -79.519531 C 5.46875 -79.519531 4.96875 -78.921875 4.96875 -77.925781 L 4.96875 -1.589844 C 4.96875 -0.597656 5.46875 0 6.558594 0 L 16.898438 0 C 17.890625 0 18.488281 -0.597656 18.488281 -1.589844 L 18.488281 -77.925781 C 18.488281 -78.921875 17.890625 -79.519531 16.898438 -79.519531 Z M 6.558594 -79.519531"/></g><clipPath id="g"><path d="M 4.921875 16.476562 L 112.921875 16.476562 L 112.921875 131.976562 L 4.921875 131.976562 Z M 4.921875 16.476562"/></clipPath></defs><g fill="#FFF"><use x="119.294" y="111.858" xmlns:xlink="http://www.w3.org/1999/xlink" xlink:href="#a" xlink:type="simple" xlink:actuate="onLoad" xlink:show="embed"/></g><g fill="#FFF"><use x="169.087" y="111.858" xmlns:xlink="http://www.w3.org/1999/xlink" xlink:href="#b" xlink:type="simple" xlink:actuate="onLoad" xlink:show="embed"/></g><g fill="#FFF"><use x="218.78" y="111.858" xmlns:xlink="http://www.w3.org/1999/xlink" xlink:href="#c" xlink:type="simple" xlink:actuate="onLoad" xlink:show="embed"/></g><g fill="#FFF"><use x="273.045" y="111.858" xmlns:xlink="http://www.w3.org/1999/xlink" xlink:href="#d" xlink:type="simple" xlink:actuate="onLoad" xlink:show="embed"/></g><g fill="#FFF"><use x="296.004" y="111.858" xmlns:xlink="http://www.w3.org/1999/xlink" xlink:href="#e" xlink:type="simple" xlink:actuate="onLoad" xlink:show="embed"/></g><g fill="#FFF"><use x="344.703" y="111.858" xmlns:xlink="http://www.w3.org/1999/xlink" xlink:href="#f" xlink:type="simple" xlink:actuate="onLoad" xlink:show="embed"/></g><g clip-path="url(#g)"><path fill="#FFF" d="M 110.128906 94.472656 C 105.65625 85.601562 96.710938 80.082031 86.796875 80.082031 C 83.921875 80.082031 81.042969 80.566406 78.308594 81.511719 L 68.109375 68.867188 L 100.984375 28.070312 C 103.464844 25.007812 102.980469 20.488281 99.929688 18 C 96.882812 15.507812 92.382812 15.996094 89.902344 19.058594 L 58.933594 57.480469 L 27.941406 19.085938 C 25.460938 15.996094 20.988281 15.539062 17.910156 18.027344 C 14.835938 20.515625 14.378906 25.007812 16.859375 28.070312 L 49.734375 68.835938 L 39.535156 81.480469 C 36.800781 80.539062 33.921875 80.050781 31.046875 80.050781 C 21.132812 80.050781 12.1875 85.574219 7.714844 94.441406 C 1.21875 107.375 6.402344 123.164062 19.25 129.6875 C 22.898438 131.546875 26.941406 132.519531 31.015625 132.519531 C 40.929688 132.519531 49.875 127 54.347656 118.128906 C 59.136719 108.605469 57.566406 97.503906 51.273438 89.722656 L 58.933594 80.222656 L 66.597656 89.722656 C 64.605469 92.183594 63.039062 95.015625 62.039062 98.132812 C 59.847656 104.796875 60.386719 111.894531 63.550781 118.160156 C 68.023438 127.027344 76.96875 132.550781 86.882812 132.550781 C 90.929688 132.550781 95.003906 131.578125 98.648438 129.71875 C 111.441406 123.164062 116.625 107.375 110.128906 94.472656 Z M 41.613281 111.664062 C 39.59375 115.699219 35.519531 118.214844 31.015625 118.214844 C 29.164062 118.214844 27.371094 117.789062 25.6875 116.929688 C 19.847656 113.953125 17.484375 106.773438 20.449219 100.90625 C 22.46875 96.875 26.542969 94.355469 31.046875 94.355469 C 32.898438 94.355469 34.691406 94.785156 36.371094 95.644531 C 42.242188 98.621094 44.578125 105.800781 41.613281 111.664062 Z M 92.152344 116.929688 C 90.472656 117.789062 88.675781 118.214844 86.824219 118.214844 C 82.324219 118.214844 78.25 115.699219 76.226562 111.664062 C 74.804688 108.832031 74.546875 105.601562 75.542969 102.566406 C 76.542969 99.535156 78.621094 97.074219 81.46875 95.644531 C 83.152344 94.785156 84.945312 94.355469 86.796875 94.355469 C 91.296875 94.355469 95.371094 96.875 97.394531 100.90625 C 100.359375 106.773438 98.023438 113.953125 92.152344 116.929688 Z M 92.152344 116.929688"/></g></svg>