<svg xmlns="http://www.w3.org/2000/svg" xmlns:xlink="http://www.w3.org/1999/xlink" width="375" viewBox="0 0 375 127.5" height="127.5" version="1.0"><defs><g id="a"><path d="M 45.175781 -65.710938 C 45.175781 -75.128906 40.070312 -80.136719 30.753906 -80.136719 L 19.535156 -80.136719 C 10.117188 -80.136719 5.007812 -75.128906 5.007812 -65.710938 L 5.007812 -14.425781 C 5.007812 -5.007812 10.117188 0 19.535156 0 L 30.753906 0 C 40.070312 0 45.175781 -5.007812 45.175781 -14.425781 L 45.175781 -25.242188 C 45.175781 -26.246094 44.578125 -26.847656 43.574219 -26.847656 L 33.558594 -26.847656 C 32.457031 -26.847656 31.953125 -26.246094 31.953125 -25.242188 L 31.953125 -17.230469 C 31.953125 -14.523438 30.550781 -13.222656 27.949219 -13.222656 L 22.738281 -13.222656 C 20.132812 -13.222656 18.730469 -14.523438 18.730469 -17.230469 L 18.730469 -62.90625 C 18.730469 -65.511719 20.035156 -66.914062 22.738281 -66.914062 L 27.949219 -66.914062 C 30.550781 -66.914062 31.953125 -65.511719 31.953125 -62.90625 L 31.953125 -54.894531 C 31.953125 -53.890625 32.457031 -53.292969 33.558594 -53.292969 L 43.574219 -53.292969 C 44.578125 -53.292969 45.175781 -53.890625 45.175781 -54.894531 Z M 45.175781 -65.710938"/></g><g id="b"><path d="M 5.007812 -1.601562 C 5.007812 -0.601562 5.609375 0 6.613281 0 L 17.027344 0 C 18.132812 0 18.632812 -0.601562 18.632812 -1.601562 L 18.632812 -26.847656 L 30.652344 -26.847656 C 40.070312 -26.847656 45.078125 -31.953125 45.078125 -41.269531 L 45.078125 -65.710938 C 45.078125 -75.128906 40.070312 -80.136719 30.652344 -80.136719 L 6.613281 -80.136719 C 5.609375 -80.136719 5.007812 -79.535156 5.007812 -78.535156 Z M 18.632812 -40.070312 L 18.632812 -66.914062 L 27.445312 -66.914062 C 30.152344 -66.914062 31.453125 -65.511719 31.453125 -62.90625 L 31.453125 -44.074219 C 31.453125 -41.570312 30.152344 -40.070312 27.445312 -40.070312 Z M 18.632812 -40.070312"/></g><g id="c"><path d="M 40.871094 -80.136719 C 39.667969 -80.136719 38.96875 -79.636719 38.566406 -78.535156 L 27.347656 -49.785156 L 16.128906 -78.535156 C 15.726562 -79.636719 15.027344 -80.136719 13.824219 -80.136719 L 3.804688 -80.136719 C 2.304688 -80.136719 1.601562 -79.234375 2.203125 -77.832031 L 20.535156 -33.257812 L 20.535156 -2.003906 C 20.535156 -0.703125 21.238281 0 22.539062 0 L 32.15625 0 C 33.457031 0 34.160156 -0.703125 34.160156 -2.003906 L 34.160156 -33.257812 L 52.488281 -77.832031 C 53.089844 -79.234375 52.390625 -80.136719 50.886719 -80.136719 Z M 40.871094 -80.136719"/></g><g id="d"><path d="M 5.007812 -2.003906 C 5.007812 -0.703125 5.710938 0 7.011719 0 L 16.128906 0 C 17.429688 0 18.132812 -0.703125 18.132812 -2.003906 L 18.132812 -11.21875 C 18.132812 -12.523438 17.429688 -13.222656 16.128906 -13.222656 L 7.011719 -13.222656 C 5.710938 -13.222656 5.007812 -12.523438 5.007812 -11.21875 Z M 5.007812 -2.003906"/></g><g id="e"><path d="M 18.632812 -13.222656 L 42.472656 -13.222656 C 43.574219 -13.222656 44.074219 -12.621094 44.074219 -11.621094 L 44.074219 -1.601562 C 44.074219 -0.5 43.574219 0 42.472656 0 L 6.613281 0 C 5.609375 0 5.007812 -0.5 5.007812 -1.601562 L 5.007812 -78.535156 C 5.007812 -79.535156 5.609375 -80.136719 6.613281 -80.136719 L 17.027344 -80.136719 C 18.132812 -80.136719 18.632812 -79.535156 18.632812 -78.535156 Z M 18.632812 -13.222656"/></g><g id="f"><path d="M 6.613281 -80.136719 C 5.507812 -80.136719 5.007812 -79.535156 5.007812 -78.535156 L 5.007812 -1.601562 C 5.007812 -0.601562 5.507812 0 6.613281 0 L 17.027344 0 C 18.03125 0 18.632812 -0.601562 18.632812 -1.601562 L 18.632812 -78.535156 C 18.632812 -79.535156 18.03125 -80.136719 17.027344 -80.136719 Z M 6.613281 -80.136719"/></g><clipPath id="g"><path d="M 3.847656 6.53125 L 112.917969 6.53125 L 112.917969 123.074219 L 3.847656 123.074219 Z M 3.847656 6.53125"/></clipPath></defs><g fill="#C2B59B"><use x="119.081" y="102.179" xmlns:xlink="http://www.w3.org/1999/xlink" xlink:href="#a" xlink:type="simple" xlink:actuate="onLoad" xlink:show="embed"/></g><g fill="#C2B59B"><use x="169.267" y="102.179" xmlns:xlink="http://www.w3.org/1999/xlink" xlink:href="#b" xlink:type="simple" xlink:actuate="onLoad" xlink:show="embed"/><use x="219.353" y="102.179" xmlns:xlink="http://www.w3.org/1999/xlink" xlink:href="#c" xlink:type="simple" xlink:actuate="onLoad" xlink:show="embed"/></g><g fill="#C2B59B"><use x="274.047" y="102.179" xmlns:xlink="http://www.w3.org/1999/xlink" xlink:href="#d" xlink:type="simple" xlink:actuate="onLoad" xlink:show="embed"/></g><g fill="#C2B59B"><use x="297.186" y="102.179" xmlns:xlink="http://www.w3.org/1999/xlink" xlink:href="#e" xlink:type="simple" xlink:actuate="onLoad" xlink:show="embed"/></g><g fill="#C2B59B"><use x="346.271" y="102.179" xmlns:xlink="http://www.w3.org/1999/xlink" xlink:href="#f" xlink:type="simple" xlink:actuate="onLoad" xlink:show="embed"/></g><g clip-path="url(#g)"><path fill="#985920" d="M 110.097656 85.222656 C 105.582031 76.273438 96.546875 70.703125 86.535156 70.703125 C 83.628906 70.703125 80.722656 71.195312 77.960938 72.148438 L 67.660156 59.390625 L 100.863281 18.230469 C 103.367188 15.140625 102.878906 10.578125 99.800781 8.070312 C 96.71875 5.558594 92.175781 6.046875 89.671875 9.136719 L 58.398438 47.902344 L 27.09375 9.164062 C 24.589844 6.046875 20.074219 5.585938 16.964844 8.097656 C 13.859375 10.609375 13.398438 15.140625 15.902344 18.230469 L 49.105469 59.359375 L 38.804688 72.117188 C 36.042969 71.167969 33.136719 70.675781 30.230469 70.675781 C 20.21875 70.675781 11.183594 76.246094 6.667969 85.195312 C 0.105469 98.242188 5.34375 114.175781 18.320312 120.753906 C 22 122.632812 26.085938 123.613281 30.203125 123.613281 C 40.214844 123.613281 49.246094 118.042969 53.765625 109.09375 C 58.597656 99.484375 57.015625 88.28125 50.65625 80.433594 L 58.398438 70.847656 L 66.136719 80.433594 C 64.121094 82.914062 62.539062 85.773438 61.535156 88.917969 C 59.316406 95.644531 59.863281 102.800781 63.058594 109.125 C 67.574219 118.070312 76.609375 123.640625 86.621094 123.640625 C 90.707031 123.640625 94.820312 122.660156 98.503906 120.785156 C 111.421875 114.175781 116.660156 98.242188 110.097656 85.222656 Z M 40.902344 102.570312 C 38.863281 106.640625 34.746094 109.179688 30.203125 109.179688 C 28.332031 109.179688 26.519531 108.746094 24.820312 107.882812 C 18.921875 104.878906 16.535156 97.636719 19.527344 91.71875 C 21.570312 87.648438 25.683594 85.109375 30.230469 85.109375 C 32.101562 85.109375 33.914062 85.539062 35.609375 86.40625 C 41.539062 89.410156 43.894531 96.652344 40.902344 102.570312 Z M 91.945312 107.882812 C 90.246094 108.746094 88.433594 109.179688 86.5625 109.179688 C 82.019531 109.179688 77.902344 106.640625 75.863281 102.570312 C 74.421875 99.714844 74.164062 96.453125 75.171875 93.390625 C 76.179688 90.332031 78.277344 87.851562 81.15625 86.40625 C 82.851562 85.539062 84.664062 85.109375 86.535156 85.109375 C 91.082031 85.109375 95.195312 87.648438 97.238281 91.71875 C 100.230469 97.636719 97.871094 104.878906 91.945312 107.882812 Z M 91.945312 107.882812"/></g></svg>